<?xml version="1.0" encoding="UTF-8"?>
<svg width="30px" height="30px" viewBox="0 0 30 30" version="1.1" xmlns="http://www.w3.org/2000/svg" xmlns:xlink="http://www.w3.org/1999/xlink">
    <!-- Generator: Sketch 48.1 (47250) - http://www.bohemiancoding.com/sketch -->
    <title>github</title>
    <desc>Created with Sketch.</desc>
    <defs></defs>
    <g id="Artboard-Copy-2" stroke="none" stroke-width="1" fill="none" fill-rule="evenodd" transform="translate(-1330.000000, -3975.000000)">
        <path d="M1360,3990.10082 C1360,3993.39105 1359.04603,3996.34996 1357.13793,3998.97754 C1355.23,4001.60513 1352.76623,4003.42388 1349.74666,4004.43397 C1349.39505,4004.49952 1349.13759,4004.45328 1348.97441,4004.29552 C1348.81102,4004.13775 1348.72943,4003.94153 1348.72943,4003.70664 L1348.72943,3999.55885 C1348.72943,3998.28716 1348.39102,3997.35669 1347.71454,3996.76782 C1348.45612,3996.68902 1349.12341,3996.57074 1349.71675,3996.41297 C1350.30997,3996.2552 1350.92156,3995.99933 1351.55147,3995.6453 C1352.18121,3995.29131 1352.70869,3994.85513 1353.13368,3994.33662 C1353.55851,3993.81816 1353.90341,3993.13014 1354.16838,3992.27274 C1354.4334,3991.41535 1354.56672,3990.42879 1354.56839,3989.31298 C1354.56839,3987.72743 1354.05429,3986.3776 1353.0262,3985.26351 C1353.5078,3984.07062 1353.45607,3982.73321 1352.87118,3981.25167 C1352.50625,3981.13421 1351.97881,3981.20647 1351.28897,3981.46824 C1350.599,3981.73001 1349.99993,3982.01849 1349.49168,3982.33402 L1348.74929,3982.80461 C1347.53787,3982.46404 1346.28804,3982.29367 1345.00002,3982.29367 C1343.71179,3982.29367 1342.46213,3982.46404 1341.25054,3982.80461 C1341.04229,3982.66031 1340.76565,3982.48336 1340.42071,3982.2735 C1340.07581,3982.06382 1339.53249,3981.8113 1338.79095,3981.51594 C1338.04942,3981.22075 1337.48957,3981.13253 1337.1113,3981.25167 C1336.53812,3982.73321 1336.4922,3984.07062 1336.9738,3985.26351 C1335.94576,3986.3776 1335.43161,3987.72743 1335.43161,3989.31298 C1335.43161,3990.42711 1335.56493,3991.41032 1335.83162,3992.26268 C1336.09809,3993.11517 1336.43983,3993.80302 1336.85632,3994.32656 C1337.27299,3994.85009 1337.79709,3995.28877 1338.42854,3995.6428 C1339.06012,3995.99679 1339.67166,3996.25266 1340.26321,3996.41043 C1340.85489,3996.5682 1341.52218,3996.68648 1342.26542,3996.76528 C1341.74546,3997.23673 1341.42641,3997.91214 1341.30812,3998.79139 C1341.03477,3998.92227 1340.7416,3999.02038 1340.42823,3999.08572 C1340.11502,3999.15127 1339.74424,3999.18404 1339.31591,3999.18404 C1338.88775,3999.18404 1338.46105,3999.04305 1338.03622,3998.76115 C1337.61123,3998.47921 1337.24962,3998.06991 1336.95128,3997.53295 C1336.70463,3997.11342 1336.38891,3996.77285 1336.00398,3996.51108 C1335.61901,3996.24931 1335.29662,3996.09257 1335.03664,3996.04049 L1334.64668,3995.98251 C1334.37337,3995.98251 1334.1843,3996.01193 1334.07935,3996.07072 C1333.97439,3996.12935 1333.94184,3996.20496 1333.98191,3996.29718 C1334.02176,3996.38944 1334.0802,3996.48084 1334.15679,3996.57155 C1334.23351,3996.66214 1334.31848,3996.74093 1334.41173,3996.80812 L1334.54924,3996.90627 C1334.83592,3997.03711 1335.11909,3997.28628 1335.3991,3997.65373 C1335.67907,3998.02118 1335.88399,3998.35504 1336.01398,3998.65543 L1336.2089,3999.10843 C1336.37891,3999.60676 1336.66559,4000.00948 1337.06876,4000.31646 C1337.47205,4000.62356 1337.9079,4000.81982 1338.37612,4000.9055 C1338.84435,4000.99101 1339.29673,4001.03721 1339.73339,4001.04379 C1340.16992,4001.0505 1340.53152,4001.028 1340.8182,4000.97591 L1341.26805,4000.89793 C1341.26805,4001.39627 1341.27139,4001.97929 1341.27809,4002.64714 C1341.28476,4003.31485 1341.28809,4003.66884 1341.28809,4003.70918 C1341.28809,4003.94575 1341.20317,4004.14197 1341.03311,4004.29806 C1340.86326,4004.45414 1340.60328,4004.50034 1340.25334,4004.43651 C1337.23377,4003.42638 1334.77,4001.60763 1332.86207,3998.98004 C1330.95397,3996.35249 1330,3993.39359 1330,3990.10332 C1330,3987.36334 1330.67079,3984.8364 1332.01221,3982.52267 C1333.35366,3980.20894 1335.1733,3978.37677 1337.4712,3977.02607 C1339.7691,3975.67541 1342.27875,3975 1345.00002,3975 C1347.72125,3975 1350.23073,3975.67541 1352.5288,3977.02607 C1354.8267,3978.37677 1356.64634,3980.20894 1357.98779,3982.52267 C1359.32921,3984.8364 1360,3987.36334 1360,3990.10332 L1360,3990.10082 Z" id="github" fill="#FFFFFF"></path>
    </g>
</svg>