<?xml version="1.0" encoding="UTF-8"?>
<svg width="41px" height="54px" viewBox="0 0 41 54" version="1.1" xmlns="http://www.w3.org/2000/svg" xmlns:xlink="http://www.w3.org/1999/xlink">
    <!-- Generator: Sketch 47.1 (45422) - http://www.bohemiancoding.com/sketch -->
    <title>Group 2</title>
    <desc>Created with Sketch.</desc>
    <defs></defs>
    <g id="Page-1" stroke="none" stroke-width="1" fill="none" fill-rule="evenodd">
        <g id="Desktop-HD-Copy-4" transform="translate(-1355.000000, -2294.000000)">
            <g id="Group-2" transform="translate(1332.000000, 2277.000000)">
                <rect id="Rectangle-3-Copy-2" x="0" y="0" width="88" height="88"></rect>
                <path d="M38.6416711,21.2550581 L54.1857053,21.261657 L47.0666183,36.6698684 L47.0730777,36.6731352 C46.960565,36.9023352 46.9044074,37.1547296 46.9095486,37.4094761 C46.9422413,38.2838728 47.6670161,38.9568374 48.5375237,38.9665726 L48.5473446,38.9665726 C48.5735779,38.9665726 48.5947358,38.9811426 48.619453,38.9795745 C48.6340856,38.9795745 48.6472681,38.9699047 48.6619007,38.9699047 L58.1633324,39.0671252 L38.5826793,62.1666037 L41.9681477,47.5774491 L41.9501535,47.5726142 C41.9810665,47.4347544 42.0237779,47.2966987 42.0189004,47.1491692 C41.9833735,46.2482459 41.2179306,45.5461413 40.3090619,45.5808349 C40.2925837,45.5808349 40.2794012,45.59057 40.2631867,45.59057 L28.1288767,45.59057 L38.6416711,21.2550581 Z M25.7122575,48.8441253 C25.728472,48.8441253 25.7415886,48.8359583 25.7580668,48.8343902 L38.3177766,48.8343902 L33.8704565,68.0021871 L33.886671,68.0055192 C33.8573399,68.1451431 33.8148262,68.2814347 33.8197038,68.4271349 C33.8554943,69.3324356 34.6215304,70.0329722 35.5296082,69.9988013 C35.9920509,69.9780897 36.4235147,69.762741 36.7157711,69.4069191 L62.8233524,38.6131028 C62.8462241,38.5903657 62.8642842,38.5643618 62.8856398,38.5401221 L62.8969768,38.523788 L62.8953949,38.523788 C63.1611545,38.216707 63.3012187,37.8221407 63.2880362,37.4176432 C63.2523116,36.5514136 62.5362372,35.8659043 61.661643,35.8605468 L61.661643,35.8589787 L61.6487242,35.8589787 C61.624007,35.8589787 61.6044968,35.8475448 61.5799773,35.8493089 C61.5634992,35.8493089 61.5537441,35.8574759 61.5390456,35.8574759 L51.0916365,35.750259 L58.2241038,20.3161091 L58.2174466,20.3127769 C58.3299594,20.0835769 58.386051,19.8314439 58.3811735,19.576436 C58.364168,19.1433865 58.1742079,18.7350342 57.8530818,18.4407592 C57.5320216,18.1467455 57.106424,17.9910489 56.6694894,18.008167 C56.6532749,18.008167 56.6401583,18.0178368 56.6236802,18.0178368 L37.5667027,18.0111725 C37.5419855,18.0111725 37.5224094,18 37.4979558,18 C36.8635472,18.0270493 36.3024992,18.4152126 36.0579635,18.995857 L36.0579635,18.9942889 L36.0530201,19.0055268 C36.0416831,19.0346668 36.0270505,19.0624348 36.0154499,19.0930775 L24.1414287,46.5749278 C24.0422961,46.7959607 23.994114,47.0358759 24.0005735,47.2772938 C24.0366277,48.1792624 24.8023342,48.8813671 25.710412,48.8458894 L25.7122575,48.8441253 Z" id="Fill-1" stroke="#FFFFFF" fill="#FFFFFF"></path>
            </g>
        </g>
    </g>
</svg>