<?xml version="1.0" encoding="UTF-8"?>
<svg width="48px" height="52px" viewBox="0 0 48 52" version="1.1" xmlns="http://www.w3.org/2000/svg" xmlns:xlink="http://www.w3.org/1999/xlink">
    <!-- Generator: Sketch 47.1 (45422) - http://www.bohemiancoding.com/sketch -->
    <title>Group 3</title>
    <desc>Created with Sketch.</desc>
    <defs></defs>
    <g id="Page-1" stroke="none" stroke-width="1" fill="none" fill-rule="evenodd">
        <g id="Desktop-HD-Copy-4" transform="translate(-936.000000, -2295.000000)">
            <g id="Group-3" transform="translate(916.000000, 2277.000000)">
                <rect id="Rectangle-3-Copy" x="0" y="0" width="88" height="88"></rect>
                <g id="Page-1" transform="translate(20.000000, 18.000000)" fill="#FFFFFF">
                    <path d="M34.781574,8.72906667 L4.32902114,8.72906667 C1.94141789,8.72906667 0,10.6704846 0,13.0585106 L0,47.6709789 C0,50.0585821 1.94141789,52 4.32902114,52 L34.781574,52 C37.1696,52 39.1106797,50.0585821 39.1106797,47.6709789 L39.1106797,13.0585106 C39.1106797,10.6638894 37.1761951,8.72906667 34.781574,8.72906667 Z M4.32902114,13.0585106 L34.781574,13.0585106 L34.781574,47.6709789 L4.32902114,47.6709789 L4.32902114,13.0585106 Z" id="Fill-1"></path>
                    <path d="M43.4466341,0.0710243902 L15.2261073,0.0710243902 C14.0291772,0.0710243902 13.0617236,1.0383935 13.0617236,2.23574634 C13.0617236,3.43301463 14.0291772,4.40004553 15.2261073,4.40004553 L43.440039,4.40004553 L43.440039,36.8617431 C43.440039,38.0590114 44.4070699,39.0261268 45.6043382,39.0261268 C46.8016911,39.0261268 47.7690602,38.0590114 47.7690602,36.8617431 L47.7690602,4.40004553 C47.7756553,2.00550894 45.8342374,0.0710243902 43.4466341,0.0710243902 Z" id="Fill-3"></path>
                </g>
            </g>
        </g>
    </g>
</svg>