<?xml version="1.0" encoding="UTF-8"?>
<svg width="31px" height="40px" viewBox="0 0 31 40" version="1.1" xmlns="http://www.w3.org/2000/svg" xmlns:xlink="http://www.w3.org/1999/xlink">
    <!-- Generator: Sketch 48.1 (47250) - http://www.bohemiancoding.com/sketch -->
    <title>Group 3</title>
    <desc>Created with Sketch.</desc>
    <defs></defs>
    <g id="Artboard" stroke="none" stroke-width="1" fill="none" fill-rule="evenodd" transform="translate(-536.000000, -640.000000)">
        <g id="Group-3" transform="translate(517.000000, 626.000000)">
            <rect id="Rectangle-3-Copy" x="0" y="0" width="68" height="68"></rect>
            <path d="M48.985644,36.8650351 C48.3129789,35.7823357 47.3660322,34.9051606 46.2452881,34.3264225 C45.4455689,33.8891464 44.2921319,33.4978523 42.7903895,33.1405983 C44.1900622,32.6922172 45.3195535,32.1335126 46.1724671,31.4457904 C47.025654,30.7578449 47.682574,29.9750335 48.1374321,29.0885392 C48.5880259,28.2172235 48.8222888,27.2465775 48.8197192,26.2615342 C48.8197192,24.8971388 48.3921964,23.6417834 47.537096,22.4956355 C46.6722096,21.3593089 45.4461703,20.4777811 43.8507228,19.8700253 C43.1487543,19.6182957 42.425847,19.4312424 41.6912403,19.3113765 L41.6912403,14 L36.2468297,14 L36.2468297,18.951444 L32.7479214,18.951444 L32.7479214,14 L27.3065176,14 L27.3065176,18.951444 L19,18.951444 L19,23.1164493 L20.2666048,23.1164493 C21.1154728,23.1164493 21.683772,23.1921189 21.9838034,23.3307348 C22.2524539,23.4473641 22.4751813,23.6518281 22.6172151,23.9120955 C22.7389662,24.1549524 22.7998144,24.7293377 22.7998144,25.6184548 L22.7998144,42.3985095 C22.7998144,43.2800373 22.7389662,43.8428713 22.6172151,44.0935406 C22.4818511,44.3590536 22.2567182,44.5654708 21.9838034,44.6749014 C21.6833346,44.81162 21.1109898,44.880035 20.2666048,44.880035 L19,44.880035 L19,49.0485002 L27.3065176,49.0485002 L27.3065176,54 L32.7463906,54 L32.7463906,49.0485002 L35.8438538,49.0485002 C35.9837008,49.0485002 36.1118483,49.0406877 36.2452989,49.0406877 L36.2452989,54 L41.6897095,54 L41.6897095,48.6193155 C42.507634,48.4832666 43.3118909,48.2720504 44.0926395,47.988457 C45.9723733,47.2856678 47.4258417,46.2596648 48.4530446,44.9107828 C49.4841291,43.5730056 49.9996167,42.1023045 49.9996167,40.4985679 C50.0132843,39.2127438 49.661152,37.9503572 48.985644,36.8650351 Z M30,24 L33.4304438,24 C35.4285366,24 36.8214383,24.1125255 37.5994195,24.3408234 C38.3771881,24.5689084 38.9693003,24.9539648 39.3836246,25.4860389 C39.7981616,26.018113 39.9996084,26.6606366 39.9996084,27.4141421 C40.0108265,28.1117575 39.7807231,28.7918606 39.3483222,29.3388919 C38.9140606,29.8901284 38.2702177,30.3105286 37.4094035,30.5858275 C36.5485893,30.8611263 35.2195933,31 33.4310818,31 L30,31 L30,24 Z M39.1408831,43.0877149 C38.5986512,43.842939 37.8624888,44.3801686 37.0382722,44.6214328 C36.2105414,44.869759 35.1747232,45 33.9255465,45 L31.7709764,45 C31.0551961,45 30.6143722,44.952708 30.4510149,44.869759 C30.2874567,44.7885465 30.1611987,44.6309839 30.104119,44.4362591 C30.0443284,44.2784649 30.01491,43.7144924 30,42.7573659 L30,36 L33.8188672,36 C35.4896404,36 36.7413774,36.1698343 37.5581642,36.4965366 C38.3749008,36.8232967 38.9820439,37.304899 39.3889313,37.9427904 C39.795668,38.580624 39.9999902,39.3616069 39.9999902,40.2922801 C40.0019481,41.3844521 39.7113286,42.3148938 39.1408831,43.0877149 Z" id="Fill-1" fill="#FFFFFF"></path>
        </g>
    </g>
</svg>