<?xml version="1.0" encoding="UTF-8"?>
<svg width="34px" height="36px" viewBox="0 0 34 36" version="1.1" xmlns="http://www.w3.org/2000/svg" xmlns:xlink="http://www.w3.org/1999/xlink">
    <!-- Generator: Sketch 48.1 (47250) - http://www.bohemiancoding.com/sketch -->
    <title>Page 1</title>
    <desc>Created with Sketch.</desc>
    <defs></defs>
    <g id="钱包-中文" stroke="none" stroke-width="1" fill="none" fill-rule="evenodd" transform="translate(-749.000000, -3197.000000)">
        <path d="M749.703205,3231.32558 L766.581395,3214.59747 L749.703205,3197.83721 C749.28742,3198.50365 749,3199.58314 749,3201.13803 L749,3228.02411 C749,3229.57917 749.28742,3230.65844 749.703205,3231.32558 Z M773.27907,3222.46674 L767.797217,3217.09302 L751.511628,3233 L751.670374,3233 C753.064166,3233 754.268224,3232.50515 756.2008,3231.48585 L773.27907,3222.46674 Z M775.265281,3208.72093 L769.093023,3214.59723 L775.265281,3220.44186 L779.008102,3218.51396 C780.38684,3217.7986 782.488372,3216.49299 782.488372,3214.59723 C782.488372,3212.66932 780.38684,3211.36368 779.008102,3210.64836 L775.265281,3208.72093 Z M751.511628,3197 L767.797217,3212.90698 L773.27907,3207.53277 L756.2008,3198.51321 C754.268224,3197.49419 753.064341,3197 751.670374,3197 L751.511628,3197 Z" id="Page-1" fill="#FFFFFF"></path>
    </g>
</svg>