<?xml version="1.0" encoding="UTF-8"?>
<svg width="34px" height="42px" viewBox="0 0 34 42" version="1.1" xmlns="http://www.w3.org/2000/svg" xmlns:xlink="http://www.w3.org/1999/xlink">
    <!-- Generator: Sketch 48.1 (47250) - http://www.bohemiancoding.com/sketch -->
    <title>Group 4</title>
    <desc>Created with Sketch.</desc>
    <defs></defs>
    <g id="Artboard" stroke="none" stroke-width="1" fill="none" fill-rule="evenodd" transform="translate(-97.000000, -639.000000)">
        <g id="Group-4" transform="translate(80.000000, 626.000000)">
            <path d="M33.9981599,54.0909091 C28.0542367,54.0909091 17,45.1232784 17,36.6441702 L17,19.7520781 L18.6902356,19.7249219 C18.7258115,19.7249219 22.499195,19.6457693 26.3920996,18.0876164 C30.385014,16.4882369 32.960383,14.6516893 32.9845676,14.6337975 C32.9845676,14.6337975 33.6823579,13.9097862 33.993837,13.9090913 C34.3071855,13.9084544 35.0111095,14.6337975 35.0111095,14.6337975 C35.0352941,14.6516893 37.6106632,16.4882369 41.6038112,18.0876164 C45.4969494,19.6457693 49.2698656,19.7249219 49.3098228,19.7249219 L50.9920553,19.7520781 L51,36.6441702 C51,45.1232784 39.9455296,54.0909091 33.9981599,54.0909091 M20.8636364,22.6943898 L20.8636364,36.2580389 C20.8636364,42.7705761 30.4611789,50.2272727 34.386451,50.2272727 C38.3110825,50.2272727 47.9090909,42.7705761 47.9090909,36.2580389 L47.9090909,22.6943898 C46.2321473,22.5157852 43.509567,22.0668292 40.6825162,20.9388883 C37.7840132,19.7814963 35.5839018,18.5220611 34.3862763,17.7727273 C33.1922612,18.5220611 30.9884812,19.7814963 28.0938798,20.9388883 C25.2631603,22.0668292 22.5401141,22.5157852 20.8636364,22.6943898 M33.6143618,43.2727273 L26.2727273,37.2316034 L28.5296303,34.6656707 L33.2397068,38.5386298 L42.1785424,28.5909091 L44.8181818,30.8028087 L33.6143618,43.2727273" id="Page-1" fill="#FFFFFF"></path>
            <rect id="Rectangle-3" x="0" y="0" width="68" height="68"></rect>
        </g>
    </g>
</svg>