<?xml version="1.0" encoding="UTF-8"?>
<svg width="45px" height="48px" viewBox="0 0 45 48" version="1.1" xmlns="http://www.w3.org/2000/svg" xmlns:xlink="http://www.w3.org/1999/xlink">
    <!-- Generator: Sketch 47.1 (45422) - http://www.bohemiancoding.com/sketch -->
    <title>Group 4</title>
    <desc>Created with Sketch.</desc>
    <defs></defs>
    <g id="Page-1" stroke="none" stroke-width="1" fill="none" fill-rule="evenodd">
        <g id="Desktop-HD-Copy-4" transform="translate(-524.000000, -2297.000000)">
            <g id="Group-4" transform="translate(502.000000, 2277.000000)">
                <rect id="Rectangle-3" x="0" y="0" width="88" height="88"></rect>
                <g id="Page-1" transform="translate(23.000000, 21.000000)" stroke="#FFFFFF" fill="#FFFFFF">
                    <path d="M33.0477448,8 L5.95208578,8 C5.42653037,8 5,8.44766563 5,9.00002964 C5,9.55209723 5.42653037,10 5.95208578,10 L33.0477448,10 C33.5735261,10 34,9.55209723 34,9.00002964 C34,8.44766563 33.5735261,8 33.0477448,8" id="Fill-1"></path>
                    <path d="M33.0477448,15 L5.95208578,15 C5.42653037,15 5,15.4476727 5,16.0001186 C5,16.552268 5.42653037,17 5.95208578,17 L33.0477448,17 C33.5735261,17 34,16.552268 34,16.0001186 C34,15.4476727 33.5735261,15 33.0477448,15" id="Fill-3"></path>
                    <path d="M25,21.9999111 C25,21.4477187 24.5794006,21 24.0604887,21 L5.93934423,21 C5.4208222,21 5,21.4477187 5,21.9999111 C5,22.5522813 5.4208222,23 5.93934423,23 L24.0604887,23 C24.5794006,23 25,22.5522813 25,21.9999111" id="Fill-5"></path>
                    <path d="M19.3221647,42.1524899 L3.21310234,42.1524899 C2.46673205,42.1524899 1.85944826,41.549342 1.85944826,40.8076213 L1.85944826,3.19281692 C1.85944826,2.45082233 2.46673205,1.84745535 3.21310234,1.84745535 L34.7865118,1.84745535 C35.5330474,1.84745535 36.1405517,2.45082233 36.1405517,3.19281692 L36.1405517,19.4166297 C36.1405517,19.9268845 36.556819,20.340467 37.0703861,20.340467 C37.5835674,20.340467 38,19.9268845 38,19.4166297 L38,3.19281692 C38,1.43239408 36.5583074,0 34.7865118,0 L3.21310234,0 C1.44108618,0 0,1.43239408 0,3.19281692 L0,40.8076213 C0,42.5677702 1.44108618,44 3.21310234,44 L19.3221647,44 C19.8357319,44 20.2519991,43.5864176 20.2519991,43.076108 C20.2519991,42.5660723 19.8357319,42.1524899 19.3221647,42.1524899" id="Fill-7"></path>
                    <path d="M41.1170467,44.1023764 L25.8829533,44.1023764 L25.8829533,41.9394344 L31.7889651,41.9394344 C32.3089626,41.9394344 32.7304418,41.514621 32.7304418,40.9905101 L32.7304418,36.0311472 C32.7304418,35.6179794 32.4655311,35.2520694 32.075254,35.1270052 C30.1229193,34.4993773 28.8112041,32.6896307 28.8112041,30.6240733 C28.8112041,28.0181462 30.9146372,25.8976798 33.5005582,25.8976798 C36.0864792,25.8976798 38.1901355,28.0181462 38.1901355,30.6240733 C38.1901355,32.6894056 36.8784203,34.4989272 34.9260857,35.1272302 C34.5358085,35.2525195 34.2708978,35.6179794 34.2708978,36.0311472 L34.2708978,40.9905101 C34.2708978,41.514621 34.6923771,41.9394344 35.2123745,41.9394344 L41.1170467,41.9394344 L41.1170467,44.1023764 Z M42.0585234,40.0418108 L36.1536279,40.0418108 L36.1536279,36.6856107 C38.5239252,35.6359824 40.0728656,33.2812526 40.0728656,30.6240733 C40.0728656,26.9716121 37.124353,24 33.5005582,24 C29.8765401,24 26.9284741,26.9716121 26.9284741,30.6240733 C26.9284741,33.2814777 28.4771911,35.6362074 30.8477118,36.6856107 L30.8477118,40.0418108 L24.9414766,40.0418108 C24.4219258,40.0418108 24,40.466793 24,40.9905101 L24,45.0513007 C24,45.5751866 24.4219258,46 24.9414766,46 L42.0585234,46 C42.5785766,46 43,45.5751866 43,45.0513007 L43,40.9905101 C43,40.466793 42.5785766,40.0418108 42.0585234,40.0418108 Z" id="Fill-9"></path>
                </g>
            </g>
        </g>
    </g>
</svg>