<?xml version="1.0" encoding="UTF-8"?>
<svg width="31px" height="36px" viewBox="0 0 31 36" version="1.1" xmlns="http://www.w3.org/2000/svg" xmlns:xlink="http://www.w3.org/1999/xlink">
    <!-- Generator: Sketch 48.1 (47250) - http://www.bohemiancoding.com/sketch -->
    <title>Fill 1</title>
    <desc>Created with Sketch.</desc>
    <defs></defs>
    <g id="钱包-中文" stroke="none" stroke-width="1" fill="none" fill-rule="evenodd" transform="translate(-658.000000, -3197.000000)">
        <path d="M688.461538,3223.40935 C687.630245,3225.28351 687.230923,3226.11927 686.159323,3227.77425 C684.663749,3230.08724 682.557171,3232.96685 679.941202,3232.99172 C677.622738,3233.01634 677.023653,3231.45652 673.873896,3231.47737 C670.724139,3231.49392 670.068211,3233.02058 667.74552,3232.99979 C665.133779,3232.97517 663.137167,3230.3767 661.641593,3228.06398 C657.461035,3221.5972 657.020914,3214.00898 659.600261,3209.97497 C661.433884,3207.10783 664.326985,3205.43206 667.044771,3205.43206 C669.811504,3205.43206 671.55146,3206.97129 673.841502,3206.97129 C676.06207,3206.97129 677.415029,3205.42802 680.61353,3205.42802 C683.033862,3205.42802 685.601036,3206.76442 687.426509,3209.07714 C681.4408,3212.40794 682.414504,3221.0883 688.461538,3223.40935 Z M678.189175,3202.84616 C679.35052,3201.33201 680.234683,3199.18871 679.916753,3197 C678.013911,3197.13235 675.793088,3198.36122 674.49743,3199.96246 C673.315812,3201.4146 672.345877,3203.56617 672.724927,3205.66375 C674.798857,3205.72582 676.946284,3204.46798 678.189175,3202.84616 Z" id="Fill-1" fill="#FFFFFF"></path>
    </g>
</svg>