<?xml version="1.0" encoding="UTF-8"?>
<svg width="33px" height="47px" viewBox="0 0 33 47" version="1.1" xmlns="http://www.w3.org/2000/svg" xmlns:xlink="http://www.w3.org/1999/xlink">
    <!-- Generator: Sketch 48.1 (47250) - http://www.bohemiancoding.com/sketch -->
    <title>Group 2</title>
    <desc>Created with Sketch.</desc>
    <defs>
        <polygon id="path-1" points="0 0 32.9432719 0 32.9432719 46.9963281 0 46.9963281"></polygon>
    </defs>
    <g id="Artboard" stroke="none" stroke-width="1" fill="none" fill-rule="evenodd" transform="translate(-972.000000, -637.000000)">
        <g id="Group-2" transform="translate(954.000000, 626.000000)">
            <rect id="Rectangle-3-Copy-2" x="0" y="0" width="68" height="68"></rect>
            <g id="手机-2" transform="translate(18.000000, 11.000000)">
                <g id="Group-3">
                    <mask id="mask-2" fill="white">
                        <use xlink:href="#path-1"></use>
                    </mask>
                    <g id="Clip-2"></g>
                    <path d="M26.9087856,0 L6.03454713,0 C2.70703697,0 0,2.73860677 0,6.10449219 L0,40.8955078 C0,44.2613932 2.70703697,47 6.03454713,47 L26.9087856,47 C30.2362348,47 32.9432717,44.2613932 32.9432717,40.8955078 L32.9432717,6.10449219 C32.9440037,2.73860677 30.2362348,0 26.9087856,0 Z M29.8209593,40.8955078 C29.8209593,42.5342044 28.5147449,43.8667279 26.9094566,43.8667279 L6.03454713,43.8667279 C4.42925878,43.8667279 3.12304436,42.5342044 3.12304436,40.8955078 L3.12304436,6.10449219 C3.12377634,4.46646875 4.43023475,3.13327214 6.03454713,3.13327214 L26.9087856,3.13327214 C28.5147449,3.13327214 29.8202274,4.46646875 29.8202274,6.10449219 L29.8202274,40.8955078 L29.8209593,40.8955078 Z" id="Fill-1" fill="#FFFFFF" mask="url(#mask-2)"></path>
                </g>
                <path d="M21.4787996,36 L12.5212004,36 C11.6810875,36 11,36.6715561 11,37.5000879 C11,38.3284439 11.6810875,39 12.5212004,39 L21.4787996,39 C22.3189125,39 23,38.3284439 23,37.5000879 C23,36.6715561 22.3189125,36 21.4787996,36 Z" id="Fill-4" fill="#FFFFFF"></path>
            </g>
        </g>
    </g>
</svg>