<?xml version="1.0" encoding="UTF-8"?>
<svg width="30px" height="30px" viewBox="0 0 30 30" version="1.1" xmlns="http://www.w3.org/2000/svg" xmlns:xlink="http://www.w3.org/1999/xlink">
    <!-- Generator: Sketch 48.1 (47250) - http://www.bohemiancoding.com/sketch -->
    <title>reddit</title>
    <desc>Created with Sketch.</desc>
    <defs></defs>
    <g id="Artboard-Copy-2" stroke="none" stroke-width="1" fill="none" fill-rule="evenodd" transform="translate(-1230.000000, -3975.000000)">
        <path d="M1248.33144,3994.53679 C1248.51012,3994.71547 1248.51012,3994.88843 1248.33144,3995.05579 C1247.63952,3995.74774 1246.52902,3996.09378 1245.00009,3996.09378 C1243.47101,3996.09378 1242.36048,3995.74774 1241.66856,3995.05579 C1241.49003,3994.88843 1241.49003,3994.71547 1241.66856,3994.53679 C1241.7355,3994.46985 1241.81918,3994.43638 1241.91959,3994.43638 C1242.02016,3994.43638 1242.10387,3994.46985 1242.17082,3994.53679 C1242.70655,3995.08369 1243.64954,3995.35721 1245.00009,3995.35721 C1246.33933,3995.35721 1247.28232,3995.08369 1247.82918,3994.53679 C1247.89631,3994.46985 1247.97999,3994.43638 1248.08041,3994.43638 C1248.18082,3994.43638 1248.2645,3994.46985 1248.33144,3994.53679 Z M1243.19203,3991.50669 C1243.19203,3991.9197 1243.04687,3992.27115 1242.75675,3992.56141 C1242.46649,3992.85152 1242.11501,3992.99673 1241.70203,3992.99673 C1241.28905,3992.99673 1240.93471,3992.85152 1240.63903,3992.56141 C1240.3432,3992.27115 1240.19525,3991.9197 1240.19525,3991.50669 C1240.19525,3991.08254 1240.3432,3990.72548 1240.63903,3990.43522 C1240.93471,3990.14511 1241.28905,3990.00009 1241.70203,3990.00009 C1242.11501,3990.00009 1242.46649,3990.14786 1242.75675,3990.44368 C1243.04687,3990.73936 1243.19203,3991.09371 1243.19203,3991.50669 Z M1249.80475,3991.50669 C1249.80475,3991.9197 1249.65684,3992.27115 1249.36116,3992.56141 C1249.06529,3992.85152 1248.71098,3992.99673 1248.29797,3992.99673 C1247.88514,3992.99673 1247.53351,3992.85152 1247.24325,3992.56141 C1246.95317,3992.27115 1246.80811,3991.9197 1246.80811,3991.50669 C1246.80811,3991.09371 1246.95317,3990.73936 1247.24325,3990.44368 C1247.53351,3990.14786 1247.88514,3990.00009 1248.29797,3990.00009 C1248.71098,3990.00009 1249.06529,3990.14511 1249.36116,3990.43522 C1249.65684,3990.72548 1249.80475,3991.08254 1249.80475,3991.50669 Z M1254.00673,3989.49783 C1254.00673,3988.95093 1253.81147,3988.48215 1253.42079,3988.09147 C1253.03012,3987.70094 1252.55576,3987.50553 1251.99788,3987.50553 C1251.43981,3987.50553 1250.95989,3987.70655 1250.55805,3988.10821 C1249.10723,3987.10387 1247.37171,3986.56814 1245.35154,3986.5012 L1246.40627,3981.76345 L1249.75454,3982.51678 C1249.75454,3982.92976 1249.8996,3983.28125 1250.18967,3983.57151 C1250.47993,3983.86158 1250.83157,3984.00664 1251.2444,3984.00664 C1251.65741,3984.00664 1252.01172,3983.85887 1252.30758,3983.56305 C1252.60326,3983.26737 1252.75118,3982.91302 1252.75118,3982.50005 C1252.75118,3982.08703 1252.60326,3981.73272 1252.30758,3981.4369 C1252.01172,3981.14118 1251.65741,3980.99327 1251.2444,3980.99327 C1250.64172,3980.99327 1250.19528,3981.27236 1249.90516,3981.83043 L1246.20544,3981.01 C1245.99329,3980.95423 1245.8538,3981.04348 1245.78686,3981.27796 L1244.63172,3986.5012 C1242.62287,3986.57927 1240.89852,3987.12061 1239.45869,3988.12494 C1239.06802,3987.71211 1238.58264,3987.50553 1238.0023,3987.50553 C1237.44424,3987.50553 1236.96988,3987.70094 1236.57921,3988.09147 C1236.18868,3988.48215 1235.99327,3988.95093 1235.99327,3989.49783 C1235.99327,3989.88836 1236.09658,3990.24556 1236.30297,3990.56929 C1236.50955,3990.89284 1236.78579,3991.13846 1237.13167,3991.30585 C1237.06473,3991.6071 1237.03126,3991.9197 1237.03126,3992.24325 C1237.03126,3993.82814 1237.81246,3995.18411 1239.37501,3996.31134 C1240.93756,3997.43861 1242.81813,3998.00221 1245.01683,3998.00221 C1247.22651,3998.00221 1249.11279,3997.43861 1250.6752,3996.31134 C1252.23775,3995.18411 1253.01895,3993.82814 1253.01895,3992.24325 C1253.01895,3991.88619 1252.97991,3991.56806 1252.9018,3991.28912 C1253.2367,3991.12172 1253.50447,3990.879 1253.7053,3990.56083 C1253.90632,3990.24282 1254.00673,3989.88836 1254.00673,3989.49783 Z M1260,3990.00009 C1260,3992.03125 1259.60391,3993.97319 1258.81139,3995.82597 C1258.01902,3997.67863 1256.95316,3999.2745 1255.61392,4000.61392 C1254.2745,4001.95316 1252.67863,4003.01902 1250.826,4003.81139 C1248.97319,4004.60391 1247.03125,4005 1245.00009,4005 C1242.96875,4005 1241.02681,4004.60391 1239.17418,4003.81139 C1237.32137,4003.01902 1235.7255,4001.95316 1234.38611,4000.61392 C1233.04684,3999.2745 1231.98098,3997.67863 1231.18861,3995.82597 C1230.39624,3993.97319 1230,3992.03125 1230,3990.00009 C1230,3987.96875 1230.39624,3986.02681 1231.18861,3984.17418 C1231.98098,3982.32137 1233.04684,3980.7255 1234.38611,3979.38611 C1235.7255,3978.04684 1237.32137,3976.98098 1239.17418,3976.18861 C1241.02681,3975.39624 1242.96875,3975 1245.00009,3975 C1247.03125,3975 1248.97319,3975.39624 1250.826,3976.18861 C1252.67863,3976.98098 1254.2745,3978.04684 1255.61392,3979.38611 C1256.95316,3980.7255 1258.01902,3982.32137 1258.81139,3984.17418 C1259.60391,3986.02681 1260,3987.96875 1260,3990.00009 Z" id="reddit" fill="#FFFFFF"></path>
    </g>
</svg>