<?xml version="1.0" encoding="UTF-8"?>
<svg width="30px" height="30px" viewBox="0 0 30 30" version="1.1" xmlns="http://www.w3.org/2000/svg" xmlns:xlink="http://www.w3.org/1999/xlink">
    <!-- Generator: Sketch 48.1 (47250) - http://www.bohemiancoding.com/sketch -->
    <title>twitter</title>
    <desc>Created with Sketch.</desc>
    <defs></defs>
    <g id="Artboard-Copy-2" stroke="none" stroke-width="1" fill="none" fill-rule="evenodd" transform="translate(-1280.000000, -3975.000000)">
        <path d="M1294.98544,3975 C1286.70928,3975 1280,3981.70928 1280,3989.98544 C1280,3998.26141 1286.70928,4004.9707 1294.98544,4004.9707 C1303.26141,4004.9707 1309.9707,3998.26141 1309.9707,3989.98544 C1309.9707,3981.70928 1303.26141,3975 1294.98544,3975 Z M1302.43371,3986.16527 C1302.44084,3986.33016 1302.44512,3986.49622 1302.44512,3986.66217 C1302.44512,3991.74051 1298.57951,3997.59677 1291.51111,3997.59677 C1289.34068,3997.59677 1287.32066,3996.9608 1285.62013,3995.86979 C1285.92098,3995.90524 1286.22665,3995.92383 1286.53663,3995.92383 C1288.33733,3995.92383 1289.9941,3995.3093 1291.30974,3994.27833 C1289.6278,3994.24774 1288.20899,3993.13646 1287.7198,3991.60976 C1287.9549,3991.65476 1288.19527,3991.67879 1288.4428,3991.67879 C1288.79337,3991.67879 1289.13262,3991.63134 1289.45516,3991.54387 C1287.69709,3991.19074 1286.37244,3989.63773 1286.37244,3987.77528 C1286.37244,3987.75915 1286.37244,3987.74301 1286.37299,3987.7267 C1286.89093,3988.01451 1287.48372,3988.18774 1288.11365,3988.20746 C1287.08271,3987.5182 1286.40416,3986.3422 1286.40416,3985.00837 C1286.40416,3984.3041 1286.59352,3983.64413 1286.92451,3983.07651 C1288.81978,3985.40166 1291.65145,3986.9314 1294.84565,3987.09205 C1294.78034,3986.81093 1294.74617,3986.51711 1294.74617,3986.21627 C1294.74617,3984.09373 1296.46715,3982.37338 1298.5891,3982.37338 C1299.69434,3982.37338 1300.69301,3982.84028 1301.39428,3983.58728 C1302.26948,3983.41522 1303.0918,3983.0951 1303.83452,3982.6545 C1303.5474,3983.55183 1302.93844,3984.30527 1302.14472,3984.78059 C1302.92216,3984.6877 1303.66316,3984.48091 1304.35184,3984.17579 C1303.83694,3984.94665 1303.18539,3985.62348 1302.43426,3986.16527 L1302.43371,3986.16527 Z" id="twitter" fill="#FFFFFF"></path>
    </g>
</svg>